<svg width="28" height="28" viewBox="0 0 28 28" fill="none" xmlns="http://www.w3.org/2000/svg">
<path fill-rule="evenodd" clip-rule="evenodd" d="M11.8 7.51487C11.8244 7.46552 11.8506 7.4168 11.8786 7.36878L14.2342 3.32225C14.6744 2.56598 15.4881 2.1001 16.3686 2.1001H21.0798C21.9603 2.1001 22.7739 2.56598 23.2142 3.32225L25.5698 7.36878C26.01 8.12505 26.01 9.05681 25.5698 9.81308L23.2142 13.8596C23.1862 13.9076 23.1568 13.9545 23.1259 14.0001C23.1568 14.0457 23.1862 14.0926 23.2142 14.1406L25.5698 18.1871C26.01 18.9434 26.01 19.8751 25.5698 20.6314L23.2142 24.6779C22.7739 25.4342 21.9603 25.9001 21.0798 25.9001H16.3686C15.4881 25.9001 14.6744 25.4342 14.2342 24.6779L11.8786 20.6314C11.8506 20.5833 11.8244 20.5345 11.7999 20.4851C11.7441 20.4889 11.6879 20.4908 11.6314 20.4908H6.92015C6.03965 20.4908 5.22603 20.0249 4.78578 19.2687L2.43016 15.2221C1.98991 14.4659 1.98991 13.5341 2.43016 12.7778L4.78578 8.73131C5.22603 7.97504 6.03965 7.50916 6.92015 7.50916H11.6314C11.6879 7.50916 11.7442 7.51108 11.8 7.51487ZM14.1603 9.40571C13.8668 8.90152 13.8668 8.28032 14.1603 7.77612L15.7308 5.07834C16.0243 4.57415 16.5667 4.26355 17.1538 4.26355L20.2947 4.26355C20.8817 4.26355 21.4241 4.57415 21.7177 5.07834L23.2881 7.77612C23.5816 8.28032 23.5816 8.90151 23.2881 9.40571L21.7177 12.1035C21.4241 12.6077 20.8817 12.9183 20.2947 12.9183H17.1538C16.5667 12.9183 16.0243 12.6077 15.7308 12.1035L14.1603 9.40571ZM4.71193 13.1852C4.41842 13.6894 4.41842 14.3106 4.71193 14.8148L6.2824 17.5126C6.57591 18.0167 7.11834 18.3273 7.70536 18.3273H10.8463C11.4333 18.3273 11.9757 18.0167 12.2692 17.5126L13.8397 14.8148C14.1332 14.3106 14.1332 13.6894 13.8397 13.1852L12.2692 10.4874C11.9757 9.9832 11.4333 9.67261 10.8463 9.67261L7.70536 9.67261C7.11834 9.67261 6.57591 9.9832 6.2824 10.4874L4.71193 13.1852ZM14.1603 18.5945C13.8668 19.0986 13.8668 19.7198 14.1603 20.224L15.7308 22.9218C16.0243 23.426 16.5667 23.7366 17.1538 23.7366H20.2947C20.8817 23.7366 21.4241 23.426 21.7177 22.9218L23.2881 20.224C23.5816 19.7198 23.5816 19.0986 23.2881 18.5945L21.7177 15.8967C21.4241 15.3925 20.8817 15.0819 20.2947 15.0819H17.1538C16.5667 15.0819 16.0243 15.3925 15.7308 15.8967L14.1603 18.5945Z" fill="#3D98FF"/>
</svg>
