<svg width="28" height="28" viewBox="0 0 28 28" fill="none" xmlns="http://www.w3.org/2000/svg">
<path fill-rule="evenodd" clip-rule="evenodd" d="M20.3 0.699951H24.5C26.0464 0.699951 27.3 1.95355 27.3 3.49995V7.69995C27.3 9.24635 26.0464 10.5 24.5 10.5H20.3C19.4565 10.5 18.7002 10.127 18.1868 9.53697C18.0392 9.36727 17.7736 9.33595 17.6146 9.49501L15.605 11.5045C15.4738 11.6358 15.4 11.8138 15.4 11.9995V15.8526C15.4 15.9989 15.4459 16.1416 15.5311 16.2605C18.1371 17.7413 19.4662 18.4598 20.0037 18.7448C20.1982 18.848 20.4148 18.9 20.635 18.9H23.1C24.6464 18.9 25.9 20.1536 25.9 21.7V24.5C25.9 26.0463 24.6464 27.3 23.1 27.3H20.3C18.7536 27.3 17.5 26.0463 17.5 24.5V21.7C17.5 21.2567 17.603 20.8375 17.7864 20.465C17.9209 20.1916 18.1125 19.857 17.7548 19.6135L15.4061 18.2902C15.2906 18.1945 15.1401 18.2007 15.0832 18.3319C14.4909 19.696 13.1319 20.65 11.55 20.65H4.55001C2.42372 20.65 0.700012 18.9262 0.700012 16.8V9.79995C0.700012 7.67365 2.42372 5.94995 4.55001 5.94995H11.55C13.2427 5.94995 14.6802 7.04228 15.1961 8.56047C15.2399 8.68912 15.4055 8.73421 15.5016 8.63813L17.295 6.84472C17.4263 6.71345 17.5 6.5354 17.5 6.34975V3.49995C17.5 1.95355 18.7536 0.699951 20.3 0.699951ZM20.3 2.79995C19.9134 2.79995 19.6 3.11335 19.6 3.49995V7.69995C19.6 8.08655 19.9134 8.39995 20.3 8.39995H24.5C24.8866 8.39995 25.2 8.08655 25.2 7.69995V3.49995C25.2 3.11335 24.8866 2.79995 24.5 2.79995H20.3ZM4.55001 8.04995C3.58351 8.04995 2.80001 8.83345 2.80001 9.79995V16.8C2.80001 17.7664 3.58351 18.55 4.55001 18.55H11.55C12.5165 18.55 13.3 17.7664 13.3 16.8V9.79995C13.3 8.83345 12.5165 8.04995 11.55 8.04995H4.55001ZM19.6 21.7C19.6 21.3134 19.9134 21 20.3 21H23.1C23.4866 21 23.8 21.3134 23.8 21.7V24.5C23.8 24.8865 23.4866 25.2 23.1 25.2H20.3C19.9134 25.2 19.6 24.8865 19.6 24.5V21.7Z" fill="#3D98FF"/>
</svg>
