<svg width="20" height="21" viewBox="0 0 20 21" fill="none" xmlns="http://www.w3.org/2000/svg">
<path d="M8.88249 3.53785C9.33211 3.84244 9.70856 4.26422 10.001 4.7924C10.2921 4.26422 10.6685 3.84244 11.1181 3.53785C12.1826 2.81676 13.5291 2.89339 14.3395 3.70375C15.1498 4.51411 15.2265 5.86061 14.5054 6.92509C14.4092 7.06706 14.3013 7.20174 14.1821 7.32878L15 7.32828C15.5705 7.32828 16.0781 7.45557 16.5014 7.68869C16.9246 7.9218 17.2636 8.26074 17.4967 8.68402C17.7298 9.1073 17.8571 9.61493 17.8571 10.1854V10.4922C17.8571 11.2114 17.7577 11.5971 17.5709 11.9463C17.3841 12.2955 17.1101 12.5696 16.7609 12.7563C16.6564 12.8122 16.5487 12.8603 16.4297 12.9002L16.4285 15.0942C16.4285 16.3678 16.2959 16.8296 16.0469 17.2952C15.7979 17.7608 15.4325 18.1262 14.9669 18.3752C14.5013 18.6242 14.0394 18.7568 12.7658 18.7568H7.23409C5.96049 18.7568 5.49865 18.6242 5.03304 18.3752C4.56743 18.1262 4.20202 17.7608 3.95301 17.2952C3.704 16.8296 3.57139 16.3678 3.57139 15.0942L3.57093 12.9004C3.45169 12.8605 3.34374 12.8123 3.23906 12.7563C2.88985 12.5696 2.61579 12.2955 2.42904 11.9463C2.25784 11.6262 2.16 11.2754 2.14489 10.6652L2.14282 10.1854C2.14282 9.61493 2.27012 9.1073 2.50323 8.68402C2.73635 8.26074 3.07529 7.9218 3.49857 7.68869C3.92185 7.45557 4.42947 7.32828 4.99997 7.32828L5.8185 7.32878C5.69929 7.20174 5.59143 7.06706 5.49526 6.92509C4.77416 5.86061 4.85079 4.51411 5.66115 3.70375C6.47151 2.89339 7.81802 2.81676 8.88249 3.53785ZM9.28568 13.0422L4.99997 13.0426V15.0942C4.99997 16.0397 5.05557 16.3276 5.21274 16.6215C5.32861 16.8381 5.4901 16.9996 5.70676 17.1155C6.00065 17.2727 6.28858 17.3283 7.23409 17.3283L9.28568 17.3279V13.0422ZM10.7143 13.0422V17.3279L12.7658 17.3283C13.7113 17.3283 13.9993 17.2727 14.2932 17.1155C14.5098 16.9996 14.6713 16.8381 14.7872 16.6215C14.9444 16.3276 15 16.0397 15 15.0942V13.0426L10.7143 13.0422ZM9.28568 8.75648L4.99997 8.75685C4.67255 8.75685 4.40039 8.82292 4.18773 8.94004C4.00127 9.04273 3.85728 9.18672 3.75458 9.37318C3.63746 9.58584 3.57139 9.858 3.57139 10.1854L3.57249 10.6206C3.57912 10.9821 3.61588 11.1363 3.68877 11.2726C3.74238 11.3729 3.81252 11.443 3.91277 11.4966C4.06278 11.5768 4.23452 11.6133 4.68039 11.614L9.28568 11.6136V8.75648ZM15 8.75685L10.7143 8.75648V11.6136H15.3185L15.4351 11.6129C15.7966 11.6063 15.9509 11.5695 16.0872 11.4966C16.1874 11.443 16.2575 11.3729 16.3112 11.2726C16.3841 11.1363 16.4208 10.9821 16.4274 10.6206L16.4285 10.1854C16.4285 9.858 16.3625 9.58584 16.2453 9.37318C16.1427 9.18672 15.9987 9.04273 15.8122 8.94004C15.5995 8.82292 15.3274 8.75685 15 8.75685ZM10.7143 7.32828C13.3214 7.07843 14.0682 5.39646 13.3571 4.68542C12.6461 3.97438 10.9641 4.72113 10.7143 7.32828ZM6.64352 4.68542C5.93247 5.39646 6.67923 7.07843 9.28637 7.32828C9.03653 4.72113 7.35456 3.97438 6.64352 4.68542Z" fill="#0077FF"/>
</svg>
