<svg width="204" height="248" viewBox="0 0 204 248" fill="none" xmlns="http://www.w3.org/2000/svg">
<rect width="204" height="248" rx="16" fill="#F6F7F9"/>
<path d="M73.3873 179.42H72.2709C59.8397 179.42 53.6241 179.42 49.6824 175.657C49.5299 175.512 49.3807 175.362 49.2351 175.21C45.4727 171.268 45.4727 165.053 45.4727 152.621V152.621" stroke="black" stroke-width="1.49518" stroke-linecap="round"/>
<path d="M128.374 68.9019H129.491C141.922 68.9019 148.138 68.9019 152.079 72.6643C152.232 72.8099 152.381 72.9591 152.527 73.1116C156.289 77.0533 156.289 83.2689 156.289 95.7001V95.7001" stroke="black" stroke-width="1.49518" stroke-linecap="round"/>
<path d="M73.3873 68.9019H72.2709C59.8397 68.9019 53.6241 68.9019 49.6824 72.6643C49.5299 72.8099 49.3807 72.9591 49.2351 73.1116C45.4727 77.0533 45.4727 83.2689 45.4727 95.7001V95.7001" stroke="black" stroke-width="1.49518" stroke-linecap="round"/>
<path d="M128.374 179.42H129.491C141.922 179.42 148.138 179.42 152.079 175.657C152.232 175.512 152.381 175.362 152.527 175.21C156.289 171.268 156.289 165.053 156.289 152.621V152.621" stroke="black" stroke-width="1.49518" stroke-linecap="round"/>
<path d="M101 64.7798L101 92.7325" stroke="#D7DDE8" stroke-width="1.5" stroke-linecap="round" stroke-dasharray="5.29 5.29"/>
<path d="M101 154.66L101 182.612" stroke="#D7DDE8" stroke-width="1.5" stroke-linecap="round" stroke-dasharray="5.29 5.29"/>
<path d="M121.329 109.416C118.713 99.9496 110.054 93 99.7732 93C87.4208 93 77.4069 103.033 77.4069 115.408C77.4069 116.223 77.4511 117.027 77.5364 117.819C69.2078 119.753 63 127.233 63 136.167C63 146.279 70.9552 154.528 80.9369 154.98H80.963C81.24 154.993 81.5181 155 81.7981 155C82.0781 155 82.3722 154.992 82.6572 154.98L115.74 154.962C116.173 154.986 116.611 155 117.051 155C129.725 155 140 144.706 140 132.007C140 120.774 131.958 111.424 121.329 109.416Z" fill="#E5EEF7" stroke="#0077FF" stroke-width="1.5"/>
<path d="M100.708 32H98.0718C93.638 32 91.4211 32 89.7925 32.998C88.8812 33.5564 88.115 34.3226 87.5566 35.2339C86.5586 36.8625 86.5586 39.0794 86.5586 43.5133V57.6865C86.5586 62.1204 86.5586 64.3373 87.5566 65.9659C88.115 66.8772 88.8812 67.6434 89.7925 68.2018C91.4211 69.1998 93.638 69.1998 98.0719 69.1998H105.443C109.877 69.1998 112.094 69.1998 113.722 68.2018C114.634 67.6434 115.4 66.8772 115.958 65.9659C116.956 64.3373 116.956 62.1204 116.956 57.6865V48.2477C116.956 46.3141 116.956 45.3473 116.702 44.4457C116.557 43.9332 116.353 43.4395 116.093 42.9749C115.635 42.1576 114.951 41.4739 113.584 40.1066L108.85 35.3722C107.482 34.0049 106.799 33.3212 105.981 32.8635C105.517 32.6033 105.023 32.3988 104.51 32.2543C103.609 32 102.642 32 100.708 32Z" fill="#F6F7F9" stroke="#0077FF" stroke-width="1.5"/>
<path d="M116.943 45.3919V46.1419H117.746L117.692 45.3408L116.943 45.3919ZM115.337 41.86L114.807 42.3904V42.3904L115.337 41.86ZM107.096 33.6188L106.566 34.1491L106.566 34.1491L107.096 33.6188ZM102.715 32V31.25H101.965V32H102.715ZM104.008 42.6001L103.402 43.041L103.402 43.041L104.008 42.6001ZM105.507 44.0984L105.947 43.4917H105.947L105.507 44.0984ZM117.692 45.3408C117.589 43.8322 116.944 42.4057 115.868 41.3297L114.807 42.3904C115.626 43.2092 116.117 44.2948 116.195 45.4429L117.692 45.3408ZM115.868 41.3297L107.626 33.0884L106.566 34.1491L114.807 42.3904L115.868 41.3297ZM107.626 33.0884C106.449 31.9113 104.853 31.25 103.188 31.25V32.75C104.455 32.75 105.67 33.2533 106.566 34.1491L107.626 33.0884ZM103.188 31.25H102.715V32.75H103.188V31.25ZM101.965 32V33.2013H103.465V32H101.965ZM101.965 33.2013C101.965 35.7241 101.964 37.6765 102.131 39.2186C102.299 40.7747 102.646 42.0017 103.402 43.041L104.615 42.1593C104.077 41.4183 103.777 40.4855 103.622 39.057C103.466 37.6145 103.465 35.7576 103.465 33.2013H101.965ZM103.402 43.041C103.865 43.6796 104.427 44.2412 105.066 44.7052L105.947 43.4917C105.436 43.1202 104.987 42.6706 104.615 42.1593L103.402 43.041ZM105.066 44.7052C106.105 45.4603 107.332 45.8072 108.888 45.9758C110.43 46.1429 112.383 46.1419 114.905 46.1419V44.6419C112.349 44.6419 110.492 44.6408 109.05 44.4845C107.621 44.3298 106.688 44.03 105.947 43.4917L105.066 44.7052ZM114.905 46.1419H116.943V44.6419H114.905V46.1419Z" fill="#0077FF"/>
<path d="M100.619 178.98H97.982C93.5481 178.98 91.3312 178.98 89.7026 179.978C88.7914 180.537 88.0252 181.303 87.4667 182.214C86.4688 183.843 86.4688 186.06 86.4688 190.493V204.667C86.4688 209.101 86.4688 211.318 87.4667 212.946C88.0252 213.857 88.7914 214.624 89.7026 215.182C91.3312 216.18 93.5481 216.18 97.982 216.18H105.353C109.787 216.18 112.004 216.18 113.632 215.182C114.544 214.624 115.31 213.857 115.868 212.946C116.866 211.318 116.866 209.101 116.866 204.667V195.228C116.866 193.294 116.866 192.328 116.612 191.426C116.467 190.913 116.263 190.42 116.003 189.955C115.545 189.138 114.861 188.454 113.494 187.087L108.76 182.352C107.392 180.985 106.709 180.301 105.891 179.844C105.427 179.584 104.933 179.379 104.421 179.234C103.519 178.98 102.552 178.98 100.619 178.98Z" fill="#F6F7F9" stroke="#0077FF" stroke-width="1.5"/>
<path d="M116.853 192.372V193.122H117.656L117.602 192.321L116.853 192.372ZM115.248 188.84L114.717 189.371V189.371L115.248 188.84ZM107.006 180.599L106.476 181.129L106.476 181.129L107.006 180.599ZM102.625 178.98V178.23H101.875V178.98H102.625ZM103.918 189.58L103.312 190.021L103.312 190.021L103.918 189.58ZM105.417 191.079L105.858 190.472H105.858L105.417 191.079ZM117.602 192.321C117.499 190.812 116.854 189.386 115.778 188.31L114.717 189.371C115.536 190.189 116.027 191.275 116.105 192.423L117.602 192.321ZM115.778 188.31L107.537 180.069L106.476 181.129L114.717 189.371L115.778 188.31ZM107.537 180.069C106.359 178.892 104.763 178.23 103.098 178.23V179.73C104.365 179.73 105.58 180.233 106.476 181.129L107.537 180.069ZM103.098 178.23H102.625V179.73H103.098V178.23ZM101.875 178.98V180.182H103.375V178.98H101.875ZM101.875 180.182C101.875 182.704 101.874 184.657 102.041 186.199C102.21 187.755 102.557 188.982 103.312 190.021L104.525 189.14C103.987 188.399 103.687 187.466 103.532 186.037C103.376 184.595 103.375 182.738 103.375 180.182H101.875ZM103.312 190.021C103.776 190.66 104.337 191.221 104.976 191.685L105.858 190.472C105.346 190.1 104.897 189.651 104.525 189.139L103.312 190.021ZM104.976 191.685C106.015 192.44 107.242 192.787 108.798 192.956C110.34 193.123 112.293 193.122 114.816 193.122V191.622C112.259 191.622 110.402 191.621 108.96 191.465C107.531 191.31 106.599 191.01 105.858 190.472L104.976 191.685ZM114.816 193.122H116.853V191.622H114.816V193.122Z" fill="#0077FF"/>
</svg>
