<svg width="16" height="16" viewBox="0 0 16 16" fill="none" xmlns="http://www.w3.org/2000/svg">
<path d="M14.9545 7.87615V7.79952C14.9545 3.96815 11.8304 0.844116 7.99318 0.844116C4.15592 0.844116 1.03778 3.96815 1.03778 7.79952V7.87615H0.843262V13.4641C0.843262 13.9592 1.24408 14.3659 1.74511 14.3659H4.09108C4.58621 14.3659 4.99293 13.9592 4.99293 13.4641V8.7721C4.99293 8.27697 4.58621 7.87026 4.09108 7.87026H2.45244V7.79363C2.44654 4.74032 4.93398 2.25288 7.99318 2.25288C11.0524 2.25288 13.5398 4.74032 13.5398 7.79952V7.87615H11.9012C11.406 7.87615 10.9993 8.28286 10.9993 8.778V12.9571H10.4512C10.3922 11.8667 9.48447 11.0061 8.38221 11.0061C7.27996 11.0061 6.30738 11.9374 6.30738 13.0809C6.30738 14.2244 7.2387 15.1558 8.38221 15.1558C9.01881 15.1558 9.60825 14.8728 10.0032 14.3718H14.2413C14.7364 14.3718 15.1431 13.9651 15.1431 13.4699V7.88204H14.9486L14.9545 7.87615ZM13.7402 9.28491V12.9571H12.414V9.28491H13.7402ZM2.25203 12.9571V9.28491H3.57827V12.9571H2.25203ZM9.04828 13.075C9.04828 13.4405 8.75356 13.7411 8.38221 13.7411C8.01087 13.7411 7.71615 13.4464 7.71615 13.075C7.71615 12.7037 8.01087 12.409 8.38221 12.409C8.75356 12.409 9.04828 12.7037 9.04828 13.075Z" fill="#212121"/>
</svg>
