<svg width="16" height="18" viewBox="0 0 16 18" fill="none" xmlns="http://www.w3.org/2000/svg">
<path fill-rule="evenodd" clip-rule="evenodd" d="M6.35122 0.428589C4.60281 0.428589 3.83201 0.582605 3.04965 1.00102C2.35308 1.37355 1.80213 1.92449 1.4296 2.62106C1.01119 3.40342 0.857178 4.17422 0.857178 5.92263V12.0774C0.857178 13.8258 1.01119 14.5966 1.4296 15.379C1.80213 16.0755 2.35308 16.6265 3.04965 16.999C3.83201 17.4174 4.60281 17.5714 6.35122 17.5714H9.64885C11.3973 17.5714 12.1681 17.4174 12.9504 16.999C13.647 16.6265 14.1979 16.0755 14.5705 15.379C14.9889 14.5966 15.1429 13.8258 15.1429 12.0774V7.82774C15.1429 7.25868 15.1231 7.00266 15.0557 6.71049C14.989 6.42106 14.8807 6.15958 14.7232 5.90776C14.5642 5.65355 14.3972 5.45849 13.9948 5.0561L10.5154 1.57664C10.113 1.17425 9.91793 1.00724 9.66372 0.848264C9.4119 0.690778 9.15042 0.582467 8.86099 0.515762C8.61675 0.459469 8.39776 0.436374 8.00004 0.430312V0.428589H6.35122ZM6.35122 1.85716C4.6834 1.85716 4.19531 2.00835 3.72336 2.26075C3.27575 2.50014 2.92873 2.84716 2.68934 3.29478C2.43694 3.76672 2.28575 4.25481 2.28575 5.92263V12.0774C2.28575 13.7452 2.43694 14.2333 2.68934 14.7053C2.92873 15.1529 3.27575 15.4999 3.72336 15.7393C4.19531 15.9917 4.6834 16.1429 6.35122 16.1429H9.64885C11.3167 16.1429 11.8048 15.9917 12.2767 15.7393C12.7243 15.4999 13.0713 15.1529 13.3107 14.7053C13.5631 14.2333 13.7143 13.7452 13.7143 12.0774V7.82774C13.7143 7.72967 13.7138 7.64509 13.7126 7.57114L9.78575 7.57145C8.79953 7.57145 8.00004 6.77195 8.00004 5.78573L8.0011 1.85891C7.9624 1.85828 7.92079 1.85783 7.87585 1.85755L6.35122 1.85716ZM9.50523 2.58679L9.42861 2.51073V5.78573C9.42861 5.96106 9.55494 6.10688 9.72155 6.13712L9.78575 6.14287L13.0624 6.14434C13.038 6.11966 13.0121 6.09367 12.9847 6.06625L9.50523 2.58679ZM4.42861 13.2857C4.42861 12.8912 4.7484 12.5714 5.14289 12.5714H8.00004C8.39452 12.5714 8.71432 12.8912 8.71432 13.2857C8.71432 13.6802 8.39452 14 8.00004 14H5.14289C4.7484 14 4.42861 13.6802 4.42861 13.2857ZM5.14289 9.7143C4.7484 9.7143 4.42861 10.0341 4.42861 10.4286C4.42861 10.8231 4.7484 11.1429 5.14289 11.1429H10.1429C10.5374 11.1429 10.8572 10.8231 10.8572 10.4286C10.8572 10.0341 10.5374 9.7143 10.1429 9.7143H5.14289Z" fill="#212121"/>
</svg>
